<?xml version="1.0" encoding="utf-8"?>
<!DOCTYPE svg PUBLIC "-//W3C//DTD SVG 1.0//EN" "http://www.w3.org/TR/2001/REC-SVG-20010904/DTD/svg10.dtd">
<svg version="1.0" xmlns="http://www.w3.org/2000/svg" width="250px" height="50px" viewBox="0 0 250 50" preserveAspectRatio="xMidYMid meet">
 <g fill="#ffffff">
  <path d="M131.4 46.2 c-12.5 -5.9 -16.4 -24.2 -7.6 -36.1 3 -4.1 11.3 -8.1 16.8 -8.1 5.5 0 14.3 4.6 17.2 8.9 7.2 10.9 4.6 26.4 -5.6 33.5 -5.5 3.9 -14.6 4.7 -20.8 1.8z m14.9 -7.7 c8.6 -4.2 10.5 -17.5 3.5 -24.4 -6.1 -5.9 -16.6 -4.8 -20.9 2.3 -2.5 4.2 -2.5 13 0 17.2 3.5 5.7 11.3 7.9 17.4 4.9z"/>
  <path d="M0 43.5 l0 -3.5 13.5 0 13.5 0 0 3.5 0 3.5 -13.5 0 -13.5 0 0 -3.5z"/>
  <path d="M38 25 l0 -22 8.1 0 c9.5 0 13.9 1.7 16.9 6.5 3.6 5.8 2.4 12.8 -2.8 17.2 l-2.6 2.2 5.7 8.5 c3.1 4.7 5.7 8.8 5.7 9.1 0 0.3 -2 0.5 -4.4 0.5 -4.3 0 -4.4 -0.1 -8.5 -6.7 -5.8 -9.4 -6.7 -10.5 -8.8 -10.1 -1.5 0.3 -1.8 1.5 -2.1 8.6 l-0.3 8.2 -3.4 0 -3.5 0 0 -22z m17.2 -4.7 c1 -0.9 1.8 -2.9 1.8 -4.5 0 -2.4 -0.6 -3.2 -3.6 -4.4 -2 -0.9 -4.7 -1.3 -6 -1 -2.2 0.6 -2.4 1.2 -2.4 6.1 l0 5.5 4.2 0 c2.4 0 4.9 -0.7 6 -1.7z"/>
  <path d="M90 31.5 l0 -15.5 3.5 0 3.5 0 0 15.5 0 15.5 -3.5 0 -3.5 0 0 -15.5z"/>
  <path d="M173 33.8 l0 -13.2 3.5 3.4 3.5 3.4 0 9.8 0 9.8 -3.5 0 -3.5 0 0 -13.2z"/>
  <path d="M192.4 33.8 c-6.5 -7.3 -13.5 -15.2 -15.6 -17.5 -3.2 -3.6 -3.8 -5 -3.8 -8.8 0 -3.1 0.4 -4.5 1.4 -4.5 0.7 0 6.4 5.9 12.7 13 l11.4 13.1 0.3 -13.1 0.3 -13 3.9 0 4 0 0 22 c0 18.2 -0.2 22 -1.4 22 -0.8 0 -6.7 -6 -13.2 -13.2z"/>
  <path d="M230 39.1 c0 -7.9 -0.1 -8.2 -6.8 -21.6 -7.1 -14.2 -7.2 -15 -1.7 -14.3 2.2 0.2 3.5 1.7 7 8.3 2.4 4.4 4.7 7.9 5.1 7.8 0.4 -0.1 2.6 -3.7 4.8 -8 3.9 -7.4 4.3 -7.8 7.9 -8.1 2.2 -0.2 3.7 0.1 3.7 0.8 0 0.6 -2.9 6.6 -6.5 13.4 l-6.5 12.3 0 8.7 0 8.6 -3.5 0 -3.5 0 0 -7.9z"/>
  <path d="M0 25 l0 -4 13.5 0 13.5 0 0 4 0 4 -13.5 0 -13.5 0 0 -4z"/>
  <path d="M0 6.5 l0 -3.5 13.5 0 13.5 0 0 3.5 0 3.5 -13.5 0 -13.5 0 0 -3.5z"/>
  <path d="M76.2 6.8 l0.3 -3.3 16.9 0 16.9 0 0.1 3.3 0.1 3.2 -17.3 0 -17.3 0 0.3 -3.2z"/>
 </g>
</svg>