<?xml version="1.0" encoding="utf-8"?>
<!DOCTYPE svg PUBLIC "-//W3C//DTD SVG 1.0//EN" "http://www.w3.org/TR/2001/REC-SVG-20010904/DTD/svg10.dtd">
<svg version="1.0" xmlns="http://www.w3.org/2000/svg" width="720px" height="1280px" viewBox="0 0 720 1280" preserveAspectRatio="xMidYMid meet">
 <g fill="#ffffff">
  <path d="M169.7 906.1 l-8.9 -0.6 -5.9 -10.5 c-3.3 -5.8 -7.6 -13.9 -9.6 -18 -2 -4.1 -4.6 -9.1 -5.9 -11.1 -1.3 -2 -2 -4 -1.7 -4.3 0.4 -0.3 7.9 -0.6 16.8 -0.6 l16.2 0 4.8 8.3 c2.6 4.5 6.7 12 9.1 16.7 2.3 4.7 5.8 11 7.7 14 2.5 3.9 3.2 5.7 2.4 6.2 -1.3 0.8 -10.8 0.8 -25 -0.1z m12.9 -7.5 c1.3 -0.5 1.1 -1.4 -1.4 -5.8 -1.6 -2.9 -5.1 -9.3 -7.6 -14.3 -2.6 -4.9 -5.1 -9.4 -5.6 -9.9 -0.5 -0.4 -4.7 -1 -9.5 -1.1 -6.5 -0.2 -8.8 0.1 -9.2 1.1 -0.7 1.9 11.3 25.4 14.5 28.4 2.4 2.2 3.5 2.5 10 2.3 4 0 7.9 -0.4 8.8 -0.7z"/>
  <path d="M220.2 906.1 l-10.4 -0.6 -6.2 -12 c-3.5 -6.6 -8.6 -16.4 -11.4 -21.8 -2.9 -5.3 -5.2 -10 -5.2 -10.3 0 -0.3 1.5 -0.4 3.3 -0.2 3.4 0.3 3.2 0 21.2 33.1 l2.5 4.7 9.5 0 c11.2 0 11.5 -0.4 6 -9 -1.9 -3 -6.1 -10.8 -9.4 -17.2 l-6 -11.8 3.2 0 c3.6 0 5 2 15.7 22.5 2.9 5.5 5.8 10.7 6.5 11.5 2.3 2.7 5.6 10 5 11 -0.6 1 -6.2 1 -24.3 0.1z"/>
  <path d="M273.3 904.3 c-1 -1.6 -2.1 -3.2 -2.5 -3.8 -0.4 -0.5 -3.4 -6.2 -6.6 -12.5 -3.2 -6.3 -7 -13.4 -8.5 -15.7 l-2.7 -4.3 -7 0 c-6.7 0 -7 -0.1 -8.5 -3 -0.8 -1.6 -1.5 -3.1 -1.5 -3.5 0 -0.3 7.9 -0.5 17.5 -0.5 l17.4 0 1.6 3 c0.8 1.6 1.5 3.1 1.5 3.5 0 0.3 -2.7 0.5 -6 0.5 -5.3 0 -6 0.2 -6 2 0 1.1 1.5 4.3 3.3 7.2 5.4 8.6 15.6 28.5 15 29.2 -1.6 1.6 -5.4 0.4 -7 -2.1z"/>
  <path d="M309.6 904.8 c-4.3 -6.9 -23.6 -42.3 -23.6 -43.4 0 -0.2 1.5 -0.4 3.3 -0.4 2.9 0 3.5 0.6 7.2 7.2 6.8 12.2 6.3 11.8 16.6 11.8 10.8 0 11 -0.5 4.4 -10.6 -2.5 -3.7 -4.5 -7.2 -4.5 -7.7 0 -0.4 1.6 -0.7 3.6 -0.5 3.4 0.3 4 0.8 7.1 6.8 1.9 3.6 4.1 7.2 4.8 8 0.7 0.8 3.9 6.7 7 13 3.2 6.3 6.6 12.6 7.7 13.9 2.3 3 1.1 4.5 -2.9 3.7 -2.3 -0.6 -3.8 -2.4 -8.2 -10.1 l-5.3 -9.5 -8.9 0 c-7 0 -9.1 0.3 -9.5 1.5 -0.6 1.5 2.4 7.3 5.7 11 1 1.1 2.1 3.2 2.4 4.8 0.7 2.5 0.5 2.7 -2.4 2.7 -2.1 0 -3.5 -0.7 -4.5 -2.2z"/>
  <path d="M428.2 895 c3.4 -6.3 6.8 -12.6 7.7 -14 0.9 -1.3 3.7 -6.3 6.2 -11 l4.6 -8.5 17.8 -0.3 17.7 -0.2 -2 3.2 c-1.1 1.8 -4.9 8.7 -8.5 15.3 -8.7 16.4 -14.8 26.5 -16.1 26.6 -0.6 0.1 -8.4 0.2 -17.2 0.3 l-16.2 0.2 6 -11.6z m31.5 -7.3 c3 -6.2 6.4 -12.3 7.4 -13.6 1.1 -1.3 1.9 -3.2 1.9 -4.2 0 -1.7 -0.9 -1.9 -9.3 -1.9 l-9.4 0 -5 9.3 c-10.7 19.4 -11.4 21.1 -9.3 21.9 0.5 0.2 4.8 0.2 9.5 0 l8.6 -0.3 5.6 -11.2z"/>
  <path d="M473 905.1 c0 -0.9 3 -6.8 6.6 -13.1 3.6 -6.3 8.8 -15.9 11.5 -21.2 4.6 -9.1 5.1 -9.8 7.9 -9.8 1.7 0 3 0.5 3 1.3 0 0.6 -2.3 5.3 -5 10.2 -10.5 19.1 -13.4 25.6 -11.9 26.6 3.6 2.3 5.4 -0.1 18.4 -25.3 6.1 -12.1 6.7 -12.8 9.5 -12.8 1.9 0 3 0.5 3 1.4 0 0.7 -2.3 5.3 -5 10.2 -13.2 23.3 -15.1 28.8 -9.3 27 2.1 -0.7 10.2 -14.5 17.6 -29.8 l4.2 -8.8 3.8 0 c4.7 0 4.7 -0.3 -2.7 12.4 -2.9 5 -7.6 13.6 -10.4 19.1 -2.9 5.5 -5.7 10.7 -6.4 11.6 -2 2.4 -34.8 3.3 -34.8 1z"/>
  <path d="M522.5 904 c0.4 -1.4 1.7 -3.8 2.9 -5.5 1.3 -1.6 4.7 -7.5 7.5 -13 2.9 -5.5 7.1 -13.3 9.4 -17.2 l4.2 -7.3 16.8 0 c10.8 0 16.7 0.4 16.7 1 0 0.6 -0.7 2.2 -1.6 3.5 -1.6 2.5 -1.9 2.5 -15.6 2.5 l-13.9 0 -2.4 5.2 c-1.3 2.8 -2.2 5.5 -1.9 6 0.3 0.4 6.1 0.8 13 0.8 7.9 0 12.4 0.4 12.4 1 0 0.6 -0.7 2.2 -1.6 3.5 -1.6 2.5 -1.9 2.5 -15.4 2.5 l-13.8 0 -2.6 4.4 c-4.4 7.6 -4.4 7.6 10.4 7.6 7.2 0 13 0.2 13 0.5 0 0.4 -0.7 1.9 -1.5 3.5 -1.8 3.4 -0.6 3.2 -21.3 3.4 l-15.3 0.1 0.6 -2.5z"/>
  <path d="M574.9 899.8 c2.2 -4 5.7 -10.6 7.8 -14.5 2.1 -4 6 -11.1 8.6 -15.8 l4.9 -8.5 16.9 0 c10.2 0 16.9 0.4 16.9 1 0 0.5 -1.7 3.6 -3.7 6.8 -2.1 3.2 -5.1 8.6 -6.7 12 l-3 6.2 -5.8 0 -5.8 0 -0.1 6.3 c-0.2 10.3 -0.9 12.2 -4.7 12.5 l-3.2 0.3 0 -9.5 0 -9.6 -4 0 c-3.5 0 -4.2 0.4 -5.6 3.3 -2.7 5.3 -8.8 15.1 -9.9 15.9 -0.5 0.4 -2.3 0.8 -3.8 0.8 l-2.8 0 4 -7.2z m40.5 -24.2 c4.1 -7.1 3.9 -7.4 -6.1 -7.8 -4.8 -0.2 -9.1 0.1 -9.8 0.7 -1.9 1.6 -5.5 8.1 -5.5 9.9 0 1.4 1.4 1.6 9.4 1.6 l9.4 0 2.6 -4.4z"/>
  <path d="M110 903.3 c-0.8 -1.6 -1.6 -3.1 -1.8 -3.5 -0.2 -0.5 1.2 -0.8 3.1 -0.8 2.8 0 3.6 0.5 5 3.5 l1.7 3.5 -3.3 0 c-2.7 0 -3.7 -0.6 -4.7 -2.7z"/>
  <path d="M354 895.8 c-2.1 -4.6 -5 -10 -6.4 -12.2 -3.3 -4.7 -11.9 -21.7 -11.3 -22.2 0.2 -0.3 10.6 -0.3 23 -0.2 l22.7 0.3 -3.1 6 c-1.8 3.3 -5.3 9.6 -7.8 14 -2.5 4.4 -6.2 11.3 -8 15.3 -1.9 3.9 -3.9 7.2 -4.4 7.2 -0.4 0 -2.6 -3.7 -4.7 -8.2z"/>
  <path d="M379.5 893.5 c2.4 -4.2 4.8 -8.9 5.5 -10.5 l1.2 -3 13.8 0 13.8 0 2.1 -3.6 c1.2 -2 2.3 -4.6 2.4 -5.8 0.2 -2 -0.2 -2.1 -12 -2.4 -6.8 -0.1 -12.3 -0.5 -12.3 -0.8 0 -0.3 0.7 -1.8 1.5 -3.4 l1.6 -3 16.9 0 c9.4 0 17 0.3 17 0.8 0 0.4 -2.8 6.1 -6.3 12.7 l-6.2 12 -14.2 0.3 -14.2 0.3 -7.4 6.9 -7.5 7 4.3 -7.5z"/>
  <path d="M134.7 893 l-6.5 -6 -13.6 0 -13.5 0 -3.7 -6.7 c-2.1 -3.8 -5.2 -9.3 -7.1 -12.3 -1.8 -3.1 -3.3 -5.9 -3.3 -6.3 0 -0.4 7.9 -0.6 17.6 -0.5 l17.6 0.3 1.4 3.3 1.3 3.3 -11.2 -0.1 c-6.1 -0.1 -12 -0.1 -12.9 -0.1 -2.7 0.1 -2.2 3.3 1.2 7.9 l3 4.2 12.9 0 c10.9 0 13 0.3 14.3 1.8 1.8 2 10.2 17.2 9.5 17.2 -0.2 0 -3.4 -2.7 -7 -6z"/>
  <path d="M359.6 791.8 c-0.4 -2.3 -1.3 -14.2 -2.1 -26.3 -4.1 -61.4 -9.8 -133.9 -11.5 -147.5 -0.5 -4.1 -1.5 -13.4 -2 -20.7 -3.1 -38.9 -5 -65.3 -5 -69 l0 -4.3 20.9 0 c11.6 0 21.2 0.3 21.4 0.7 0.2 0.5 0 5.3 -0.4 10.8 -1.2 14.7 -2.7 35 -3.9 52 -0.6 8.3 -1.6 19.3 -2.1 24.5 -1.9 18.4 -2.9 29.6 -3.9 42 -0.5 6.9 -1.4 17.9 -2 24.5 -1.3 15 -5.5 73.9 -7.1 98.5 -0.6 10.2 -1.3 18.7 -1.4 18.8 -0.2 0.2 -0.6 -1.6 -0.9 -4z"/>
  <path d="M324.9 721.9 c-2.3 -4.6 -5.6 -10.6 -7.4 -13.4 -1.7 -2.7 -5.6 -9.5 -8.5 -15 -2.9 -5.5 -6.1 -11.2 -7.1 -12.6 -1 -1.5 -3.7 -6.2 -6 -10.5 -2.3 -4.4 -5.6 -10.1 -7.3 -12.9 -1.8 -2.7 -5.1 -8.5 -7.5 -12.8 -2.4 -4.3 -5.3 -8.4 -6.4 -9.2 -1.2 -0.7 -12.3 -4.6 -24.7 -8.5 -12.4 -3.9 -24.5 -8 -27 -8.9 -2.5 -1 -10.9 -4 -18.7 -6.5 l-14.2 -4.7 -1 -5.2 c-0.6 -2.9 -2.4 -13.5 -4.1 -23.7 -1.7 -10.2 -3.4 -19.8 -3.9 -21.5 -0.5 -1.6 -1.7 -7.7 -2.6 -13.5 -0.8 -5.8 -2.2 -14.5 -3 -19.5 -2.6 -16 -6.5 -41.4 -6.5 -42 0 -0.2 2.4 0.5 5.3 1.6 2.8 1.2 15.8 5.5 28.7 9.5 12.9 4.1 24.4 7.9 25.5 8.4 4.6 2.2 13.1 5.1 33.5 11.4 25.6 8 31.8 10.4 32.5 12.5 0.2 0.9 1.4 6.6 2.5 12.6 1.2 6.1 2.7 14.1 3.4 17.8 0.7 3.7 0.9 7 0.5 7.3 -0.5 0.3 -6.9 -1.7 -14.2 -4.4 -7.2 -2.8 -19.7 -7.1 -27.7 -9.7 -8 -2.5 -19.7 -6.4 -26 -8.6 -13.2 -4.7 -16.5 -5.5 -17.3 -4.1 -0.4 0.5 0 4.2 0.8 8.3 0.8 4.1 2.4 13.5 3.5 20.9 1.3 8.1 2.7 14.2 3.7 15.2 1.7 1.9 5.6 3.3 33.8 12.4 11 3.5 27 8.9 35.6 12 17.8 6.3 15.6 3.9 18.4 20.4 0.9 4.7 2.2 11.2 3 14.5 0.8 3.3 2.8 15.5 4.5 27 3.9 26.7 7.6 48.2 9.6 56.3 0.9 3.5 1.4 6.6 1.1 6.9 -0.3 0.3 -2.5 -3.3 -4.8 -7.8z"/>
  <path d="M390.5 727.8 c1.6 -5.4 4.9 -23.6 10 -55.3 4.6 -29.2 9.8 -58.9 10.8 -61.9 0.3 -0.8 24.4 -9.6 37.7 -13.7 17.9 -5.5 45.7 -15.1 47.3 -16.3 1.4 -1.1 2.5 -5.5 4.7 -20.3 1.6 -10.3 3.2 -19.7 3.4 -20.8 0.8 -3 -0.8 -4.9 -3.5 -4.2 -1.3 0.2 -7.6 2.3 -13.9 4.5 -6.3 2.3 -18.5 6.3 -27 9 -8.5 2.7 -21.1 7 -27.9 9.6 -6.8 2.6 -12.6 4.4 -12.9 4.1 -0.3 -0.3 -0.1 -3.4 0.6 -6.8 3.6 -19.3 6.1 -32 6.4 -32.1 2.8 -1.6 12.8 -5.2 22.3 -8.1 17.4 -5.4 38.2 -12.3 41.8 -14 1.8 -0.8 12.5 -4.4 24 -8 18.3 -5.8 29.2 -9.5 35 -12 2 -0.9 2.2 1 0.7 8.2 -0.6 2.6 -3 17.9 -5.5 33.8 -2.5 16 -5.4 33.3 -6.4 38.5 -1.1 5.2 -3.2 16.7 -4.6 25.5 -1.4 8.8 -2.8 16.8 -3.1 17.7 -0.4 1.2 -4.5 3 -13.2 5.8 -7 2.3 -15.4 5.2 -18.7 6.5 -3.3 1.3 -16.7 5.8 -29.8 9.9 -23.2 7.5 -23.8 7.7 -26.1 11.4 -4.2 6.7 -17.3 29.6 -20.1 35.2 -1.5 3 -3.8 6.9 -5 8.5 -1.3 1.7 -4.1 6.6 -6.3 11 -2.2 4.4 -5.1 9.6 -6.5 11.6 -1.3 1.9 -5 8.4 -8.1 14.2 -5.6 10.4 -7.6 13.1 -6.1 8.5z"/>
  <path d="M231.5 702.9 c-4.9 -1.6 -10.3 -3.5 -12 -4.3 -1.6 -0.7 -5.3 -2.1 -8.2 -3 -2.8 -1 -5.6 -2.2 -6.1 -2.9 -0.5 -0.7 -2 -7.3 -3.2 -14.7 -1.2 -7.4 -2.6 -15.7 -3.1 -18.4 -0.5 -2.7 -0.8 -5 -0.6 -5.2 0.3 -0.4 37.6 12.2 38.3 12.9 1.1 1 7.4 33.2 7.4 37.5 0 1.7 -2.4 1.4 -12.5 -1.9z"/>
  <path d="M476 705.3 c0.1 -1.9 5 -29.3 6 -33.3 l1.1 -4.6 8.7 -3.3 c11.3 -4.2 29.5 -10.1 29.9 -9.7 0.4 0.3 0.1 2.4 -4 26 l-2.2 12.9 -8 2.9 c-4.4 1.6 -10.9 3.8 -14.5 4.9 -3.6 1.1 -8.3 2.7 -10.5 3.5 -4.5 1.6 -6.5 1.8 -6.5 0.7z"/>
 </g>
</svg>